<?xml version="1.0" encoding="UTF-8" standalone="no"?>
<!-- Created with Inkscape (http://www.inkscape.org/) -->

<svg
   xmlns:dc="http://purl.org/dc/elements/1.1/"
   xmlns:cc="http://creativecommons.org/ns#"
   xmlns:rdf="http://www.w3.org/1999/02/22-rdf-syntax-ns#"
   xmlns:svg="http://www.w3.org/2000/svg"
   xmlns="http://www.w3.org/2000/svg"
   xmlns:sodipodi="http://sodipodi.sourceforge.net/DTD/sodipodi-0.dtd"
   xmlns:inkscape="http://www.inkscape.org/namespaces/inkscape"
   width="1000"
   height="519.23389"
   id="svg2"
   sodipodi:version="0.32"
   inkscape:version="0.48.5 r10040"
   version="1.0"
   inkscape:output_extension="org.inkscape.output.svg.inkscape"
   sodipodi:docname="A&amp;E_2008.svg">
  <metadata
     id="metadata3033">
    <rdf:RDF>
      <cc:Work
         rdf:about="">
        <dc:format>image/svg+xml</dc:format>
        <dc:type
           rdf:resource="http://purl.org/dc/dcmitype/StillImage" />
      </cc:Work>
    </rdf:RDF>
  </metadata>
  <defs
     id="defs3031" />
  <sodipodi:namedview
     pagecolor="#ffffff"
     bordercolor="#666666"
     borderopacity="1"
     objecttolerance="10"
     gridtolerance="10"
     guidetolerance="10"
     inkscape:pageopacity="0"
     inkscape:pageshadow="2"
     inkscape:window-width="1011"
     inkscape:window-height="1031"
     id="namedview3029"
     showgrid="false"
     inkscape:zoom="0.20361328"
     inkscape:cx="736.00461"
     inkscape:cy="584.01617"
     inkscape:window-x="897"
     inkscape:window-y="-16"
     inkscape:window-maximized="0"
     inkscape:current-layer="g23499"
     fit-margin-top="0"
     fit-margin-left="0"
     fit-margin-right="0"
     fit-margin-bottom="0" />
  <g
     inkscape:label="Layer 1"
     inkscape:groupmode="layer"
     id="layer1"
     transform="translate(-472.15318,-70.065095)">
    <g
       id="g23499"
       clip-path="url(#id71)"
       transform="matrix(30.018311,0,0,-29.902518,-11974.488,13119.018)">
      <path
         id="path23501"
         d="m 437.20268,432.7129 c 0,-1.37095 -0.70417,-2.29322 -1.77393,-3.09086 0,0 -0.8018,-0.62316 -1.23904,-0.92228 l 3.44814,-4.16789 c 0.0976,0.13398 1.20789,1.46962 1.20789,1.46962 l 8.53934,0 0,3.72129 -8.53934,0 0,2.65258 9.10122,0.006 0.001,4.00068 -12.87029,-0.001 c 1.34498,-0.69482 2.12497,-2.03358 2.12497,-3.66833 m 3.1511,-9.43669 c -0.58785,-0.67717 -0.60966,-0.75922 -0.82257,-1.00225 l 2.68893,-3.25392 5.71332,10e-4 10e-4,4.25305 z m -17.5606,3.13345 1.71784,5.14001 1.67629,-5.14001 z m 7.54125,9.97261 -8.79276,0.001 -6.90667,-17.36222 5.84315,-0.002 1.12895,3.22173 5.46822,-0.005 c -0.1963,0.59511 -0.29912,1.26293 -0.29912,2.00345 0,2.26726 1.60567,3.73791 3.1106,4.75989 -0.70313,0.82257 -1.72511,2.06888 -1.72511,3.76387 0,1.62645 0.78206,2.93508 2.17274,3.61952 m 2.78967,-5.18987 c 0.55877,0.39882 0.99498,0.87242 0.99498,1.49558 0,0.82256 -0.53384,1.44572 -1.43326,1.44572 -0.94824,0 -1.43327,-0.62316 -1.43327,-1.44572 0,-0.64809 0.5328,-1.27125 1.14038,-1.99411 0.24407,0.14956 0.73117,0.49853 0.73117,0.49853 m -3.11475,-7.02611 c 0,-1.4717 1.35953,-2.80214 2.81668,-2.80214 1.02094,0 1.77496,0.32301 2.57676,1.04587 l -3.6434,4.47324 c -1.04691,-0.74779 -1.75004,-1.44573 -1.75004,-2.71697"
         style="fill:#000000;fill-rule:nonzero;stroke:none"
         inkscape:connector-curvature="0"
         sodipodi:nodetypes="cccccccccccccccccccccccccccccscsccssscccsccc" />
    </g>
  </g>
</svg>
