<?xml version="1.0" encoding="UTF-8" standalone="no"?>
<svg
   xmlns:dc="http://purl.org/dc/elements/1.1/"
   xmlns:cc="http://creativecommons.org/ns#"
   xmlns:rdf="http://www.w3.org/1999/02/22-rdf-syntax-ns#"
   xmlns:svg="http://www.w3.org/2000/svg"
   xmlns="http://www.w3.org/2000/svg"
   xmlns:sodipodi="http://sodipodi.sourceforge.net/DTD/sodipodi-0.dtd"
   xmlns:inkscape="http://www.inkscape.org/namespaces/inkscape"
   id="Layer_1"
   data-name="Layer 1"
   viewBox="0 0 1000 999.99998"
   version="1.1"
   sodipodi:docname="CNN en Español 2015.svg"
   width="1000"
   height="1000"
   inkscape:version="1.0.2 (e86c870879, 2021-01-15)">
  <metadata
     id="metadata13">
    <rdf:RDF>
      <cc:Work
         rdf:about="">
        <dc:format>image/svg+xml</dc:format>
        <dc:type
           rdf:resource="http://purl.org/dc/dcmitype/StillImage" />
      </cc:Work>
    </rdf:RDF>
  </metadata>
  <sodipodi:namedview
     pagecolor="#ffffff"
     bordercolor="#666666"
     borderopacity="1"
     objecttolerance="10"
     gridtolerance="10"
     guidetolerance="10"
     inkscape:pageopacity="0"
     inkscape:pageshadow="2"
     inkscape:window-width="1366"
     inkscape:window-height="705"
     id="namedview11"
     showgrid="false"
     inkscape:zoom="0.3389804"
     inkscape:cx="345.04593"
     inkscape:cy="473.32339"
     inkscape:window-x="-8"
     inkscape:window-y="-8"
     inkscape:window-maximized="1"
     inkscape:current-layer="Layer_1"
     inkscape:document-rotation="0" />
  <defs
     id="defs4">
    <style
       id="style2">.cls-1{fill:#fff;}</style>
  </defs>
  <title
     id="title6">779402_SVG-5-29</title>
  <g
     id="g15">
    <path
       style="display:inline;fill:#cc0000;fill-opacity:1;stroke-width:19.685"
       d="M 0,0 V 1000 H 1000 V 0 Z"
       id="path8" />
    <path
       id="path840"
       style="fill:#ffffff;fill-opacity:1;stroke-width:19.6928"
       d="m 441.70933,177.23513 a 172.31193,172.31193 0 0 1 94.13155,-27.56991 210.31902,210.31902 0 0 1 47.06578,5.31706 393.85585,393.85585 0 0 1 51.39818,15.95116 l 28.94841,11.02796 3.5447,1.3785 33.8716,13.3911 a 233.55652,233.55652 0 0 0 27.56991,8.07404 119.53525,119.53525 0 0 0 28.35763,3.74163 85.466719,85.466719 0 0 0 59.07837,-19.69279 109.09807,109.09807 0 0 0 22.25286,-32.49311 h 16.54194 a 110.27964,110.27964 0 0 1 -108.50728,78.77117 c -39.38559,1.18157 -68.33399,-10.24025 -111.65814,-27.37298 l -3.93855,-2.75699 C 586.0575,187.27846 556.91217,175.65971 515.16345,176.84128 A 121.11067,121.11067 0 0 0 397.0067,262.70185 v 1.3785 h -17.13273 a 153.60378,153.60378 0 0 1 61.04765,-87.23907 z m -82.5128,386.17566 v -178.4167 c 0,-67.15242 86.64829,-98.46396 132.72943,-21.46514 3.15084,5.71091 75.62032,130.36628 75.62032,130.36628 V 384.99409 c 0,-67.15242 86.64828,-98.46396 132.53249,-21.46514 l 75.62032,130.36628 V 319.41709 h 43.32415 v 293.02875 a 8.6648287,8.6648287 0 0 1 -6.3017,8.86176 c -4.52934,1.18157 -9.45254,-1.57542 -12.99724,-7.68019 0,-1.18157 -37.21938,-64.39543 -72.86333,-125.64001 L 662.07168,376.13234 a 28.751477,28.751477 0 0 0 -32.29618,-15.55731 25.994486,25.994486 0 0 0 -19.69279,25.60063 v 226.27018 a 8.8617566,8.8617566 0 0 1 -6.30169,8.86176 c -4.72627,1.18157 -9.45254,-1.57542 -12.99725,-7.68019 0,0 -34.85624,-59.07837 -67.7432,-116.77826 L 452.93423,376.13234 a 28.554549,28.554549 0 0 0 -31.7054,-15.36038 25.797558,25.797558 0 0 0 -19.69279,25.4037 v 221.34699 a 12.012603,12.012603 0 0 1 -11.42182,11.22489 H 277.8653 a 119.53525,119.53525 0 0 1 0,-238.87357 h 59.07838 v 43.12721 h -57.89681 a 76.408035,76.408035 0 0 0 0,152.61914 h 68.13706 a 12.012603,12.012603 0 0 0 12.0126,-12.20953 z m 520.28358,50.21662 c 0,67.15242 -86.84521,98.46396 -132.72942,21.46515 L 671.13037,504.72627 v 108.90114 c 0,67.15242 -86.64829,98.46396 -132.72942,21.46515 -3.15085,-5.71091 -75.62033,-130.36629 -75.62033,-130.36629 V 607.32572 A 65.183143,65.183143 0 0 1 392.0835,679.20441 H 278.65301 a 179.99212,179.99212 0 0 1 0,-359.78732 h 59.07838 v 43.12722 h -59.07838 a 136.86491,136.86491 0 0 0 0,273.53289 h 112.24892 a 29.145333,29.145333 0 0 0 28.55455,-28.55455 V 386.17566 a 8.6648287,8.6648287 0 0 1 6.10476,-8.86176 c 4.72627,-1.18156 9.45254,1.57543 12.99725,7.68019 0,0 36.03781,61.83537 70.10634,120.51989 40.56715,70.30327 67.34935,116.38441 67.7432,116.97519 a 28.554549,28.554549 0 0 0 32.49311,15.36038 25.797558,25.797558 0 0 0 19.69279,-25.40371 V 386.17566 a 8.6648287,8.6648287 0 0 1 6.3017,-8.86176 c 4.52934,-1.18156 9.25561,1.57543 12.80031,7.68019 l 64.78929,111.85506 73.06026,125.64002 a 29.736117,29.736117 0 0 0 25.60063,16.34502 23.828279,23.828279 0 0 0 6.69555,-0.98464 25.60063,25.60063 0 0 0 19.69279,-25.40371 V 319.41709 h 43.12722 z M 819.81095,244.38755 a 169.75187,169.75187 0 0 1 -93.93462,27.76684 210.31902,210.31902 0 0 1 -47.06577,-5.31705 352.10713,352.10713 0 0 1 -49.42891,-14.57267 l -4.33242,-1.77235 c -9.25561,-3.34777 -18.31429,-7.28633 -30.3269,-12.0126 l -33.67467,-13.78496 a 245.17527,245.17527 0 0 0 -27.56991,-8.07404 119.92911,119.92911 0 0 0 -28.55455,-3.74163 84.088224,84.088224 0 0 0 -59.07838,19.69279 109.09807,109.09807 0 0 0 -21.26822,31.50847 h -17.52658 a 109.68885,109.68885 0 0 1 108.31036,-78.77117 263.88342,263.88342 0 0 1 111.4612,27.37298 l 4.33242,1.77235 c 44.30878,17.72351 73.65104,29.34226 115.39976,28.16069 a 120.71682,120.71682 0 0 0 118.15676,-85.86057 v -1.77235 h 16.9358 a 153.40685,153.40685 0 0 1 -61.83537,89.40527 z" />
  </g>
</svg>
