<?xml version="1.0" encoding="utf-8"?>
<!-- Generator: Adobe Illustrator 23.0.0, SVG Export Plug-In . SVG Version: 6.00 Build 0)  -->
<svg version="1.1" id="Layer_1" xmlns="http://www.w3.org/2000/svg" xmlns:xlink="http://www.w3.org/1999/xlink" x="0px" y="0px"
	 viewBox="0 0 194.2 142.8" style="enable-background:new 0 0 194.2 142.8;" xml:space="preserve">
<g>
	<path d="M45.1,74.2c0,13.9,0,27.9,0,41.8c0,0.9,0,1.1-1.1,0.9c-14.4-3.3-28.7-6.6-43.1-9.9c-0.8-0.2-0.9-0.4-0.9-1.2
		c0-24.6,0-49.1,0-73.7c0-0.8,0.2-0.9,0.9-0.9c14.4,0,28.8,0,43.2,0c0.9,0,0.9,0.3,0.9,1C45.1,46.2,45.1,60.2,45.1,74.2z"/>
	<path d="M192.8,75.7c-3.3-16-11.9-28.3-26.4-36.2c-10.7-5.8-22.3-8.1-34.3-8.1c-23.1-0.1-46.3,0-69.4,0c-0.9,0-1.2,0.2-1.2,1.2
		c0,14.5,0,29.1,0,43.6c0,14.6,0,29.2,0,43.8c0,0.9,0.3,1.1,1.1,1.3c13.5,3,26.9,6.2,40.4,9.2c18.1,4.1,36.3,8.3,54.4,12.4
		c0.5,0.1,0.9,0.1,1.4,0c15.3-5.7,26.2-16,31.8-31.5C194.7,99.7,195.2,87.7,192.8,75.7z M144.1,103.1c-3.4,8.2-9.8,12.4-18.7,12.5
		c-5.9,0-11.8,0-17.8,0c-0.9,0-1.1-0.1-1.1-1.1c0-8.4,0-16.8,0-25.2s0-16.7,0-25.1c0-0.9,0.1-1.2,1.1-1.2c5.6,0,11.3,0,16.9,0
		c10.6,0,17.5,5.2,20.6,15.3C147.7,86.7,147.5,95,144.1,103.1z"/>
	<g>
		<g>
			<g>
				<g>
					<g>
						<g id="Discovery_Channel_Logo_2_">
							<path id="Discovery_3_" d="M65.7,7c0,3.9-3,7-7.4,7h-4.2c0.9-0.6,1.6-1.3,2.1-2.2h2.1c2.9,0,4.8-2,4.8-4.7s-1.9-4.7-4.8-4.7
								h-2.7v2c-0.4-0.5-0.9-0.9-1.4-1.3c-0.3-0.2-0.7-0.4-1-0.6V0h5.2C62.7,0,65.7,3,65.7,7z M67.1,14h2.4V3.5h-2.4V14z M78.5,8.8
								c-0.3-0.2-0.7-0.4-1-0.6C77,8.1,76.7,8,76.3,7.8c-0.3-0.1-0.6-0.2-0.9-0.3c-0.3-0.1-0.5-0.2-0.8-0.3
								c-0.2-0.1-0.4-0.2-0.5-0.4c-0.1-0.1-0.2-0.3-0.2-0.5v0c0-0.3,0.1-0.6,0.4-0.8c0.2-0.2,0.6-0.3,1.1-0.3c0.4,0,0.9,0.1,1.4,0.3
								c0.5,0.2,1,0.4,1.5,0.7l0.9-1.7c-0.6-0.4-1.2-0.7-1.8-0.9c-0.7-0.2-1.3-0.3-2-0.3c-0.5,0-1,0.1-1.5,0.2
								c-0.5,0.1-0.9,0.4-1.2,0.6c-0.3,0.3-0.6,0.6-0.8,1s-0.3,0.9-0.3,1.3v0c0,0.5,0.1,0.9,0.3,1.3c0.2,0.3,0.5,0.6,0.8,0.9
								c0.3,0.2,0.7,0.4,1,0.6c0.4,0.1,0.8,0.3,1.1,0.4c0.3,0.1,0.6,0.2,0.9,0.3c0.3,0.1,0.5,0.2,0.8,0.3c0.2,0.1,0.4,0.2,0.5,0.4
								c0.1,0.1,0.2,0.3,0.2,0.5v0c0,0.3-0.1,0.6-0.4,0.8s-0.7,0.3-1.2,0.3s-1.1-0.1-1.7-0.3c-0.6-0.2-1.2-0.5-1.8-0.9l-1.1,1.6
								c0.7,0.5,1.4,0.9,2.2,1.2c0.8,0.2,1.5,0.4,2.3,0.4c0.5,0,1,0,1.5-0.2c0.5-0.1,0.9-0.3,1.2-0.6c0.3-0.3,0.6-0.6,0.8-1
								c0.2-0.4,0.3-0.9,0.3-1.5v0c0-0.5-0.1-0.9-0.3-1.2C79,9.3,78.7,9,78.5,8.8z M101.7,6.6c0.3,0.7,0.4,1.4,0.4,2.1v0
								c0,0.8-0.1,1.5-0.4,2.1c-0.3,0.7-0.7,1.2-1.2,1.8c-0.5,0.5-1.1,0.9-1.8,1.2c-0.7,0.3-1.4,0.4-2.3,0.4c-0.8,0-1.5-0.1-2.2-0.4
								c-0.7-0.3-1.3-0.7-1.8-1.2c-0.5-0.5-0.9-1-1.2-1.7c-0.3-0.7-0.4-1.4-0.4-2.1v0c0-0.8,0.1-1.5,0.4-2.1
								c0.3-0.7,0.7-1.2,1.2-1.8c0.5-0.5,1.1-0.9,1.8-1.2c0.7-0.3,1.4-0.4,2.2-0.4c0.8,0,1.6,0.1,2.2,0.4c0.7,0.3,1.3,0.7,1.8,1.2
								C101,5.4,101.4,6,101.7,6.6z M99.7,8.8c0-0.5-0.1-0.9-0.2-1.3c-0.1-0.4-0.4-0.8-0.7-1.1c-0.3-0.3-0.6-0.6-1-0.7
								c-0.4-0.2-0.8-0.3-1.3-0.3c-0.5,0-0.9,0.1-1.3,0.3c-0.4,0.2-0.7,0.4-1,0.7c-0.3,0.3-0.5,0.7-0.6,1c-0.1,0.4-0.2,0.9-0.2,1.3
								v0c0,0.5,0.1,0.9,0.2,1.3c0.1,0.4,0.4,0.8,0.7,1.1c0.3,0.3,0.6,0.6,1,0.7c0.4,0.2,0.8,0.3,1.3,0.3c0.5,0,0.9-0.1,1.3-0.3
								c0.4-0.2,0.7-0.4,1-0.7c0.3-0.3,0.5-0.7,0.6-1C99.6,9.7,99.7,9.3,99.7,8.8L99.7,8.8z M107.6,11.2l-2.8-7.7h-2.6l4.3,10.6h2.2
								L113,3.5h-2.5L107.6,11.2z M123.1,6.8c0.2,0.7,0.3,1.4,0.3,2.2c0,0.1,0,0.2,0,0.3c0,0.1,0,0.2,0,0.3h-7.7
								c0.1,0.9,0.5,1.5,1,2c0.6,0.5,1.2,0.7,2,0.7c0.6,0,1.1-0.1,1.6-0.3c0.4-0.2,0.9-0.5,1.3-0.9l1.4,1.2
								c-0.5,0.6-1.1,1.1-1.8,1.4c-0.7,0.4-1.5,0.5-2.5,0.5c-0.8,0-1.5-0.1-2.1-0.4c-0.7-0.3-1.2-0.7-1.7-1.1
								c-0.5-0.5-0.9-1-1.1-1.7c-0.3-0.7-0.4-1.4-0.4-2.2v0c0-0.8,0.1-1.5,0.4-2.1c0.2-0.7,0.6-1.2,1.1-1.8s1-0.9,1.6-1.2
								s1.3-0.4,2.1-0.4c0.9,0,1.6,0.1,2.2,0.5c0.6,0.3,1.1,0.7,1.6,1.2C122.6,5.5,122.8,6.1,123.1,6.8z M121,7.8
								c0-0.4-0.1-0.5-0.2-0.9c-0.1-0.3-0.3-0.6-0.5-0.9c-0.2-0.2-0.5-0.5-0.8-0.6c-0.3-0.1-0.7-0.2-1.1-0.2c-0.8,0-1.4,0.2-1.8,0.8
								c-0.5,0.5-0.8,0.9-0.9,1.8H121z M86.2,12.2c-1.8,0-3.1-1.5-3.1-3.4c0-1.8,1.3-3.4,3-3.4c1.2,0,2,0.5,2.7,1.3l1.5-1.6
								c-1-1-2.2-1.8-4.2-1.8c-3.1,0-5.4,2.5-5.4,5.5s2.3,5.4,5.4,5.4c2,0,3.3-0.8,4.3-2l-1.5-1.4C88.1,11.7,87.3,12.2,86.2,12.2z
								 M127.6,5.3V3.5h-2.4V14h2.4v-4c0-0.7,0-1.3,0.2-1.8c0.7-1.9,2.7-2.5,3.8-2.6l-0.8-2C130,3.7,128.5,4.1,127.6,5.3z
								 M140.2,3.5l-2.7,7.7L135,3.5h-2.6l3.9,10.4l0,0c0,0-0.8,2.1-1.5,2.7c-0.6,0.3-1.8,0.2-2.3,0.2v2c0.9,0,2.8,0,3.5-0.3
								c0.8-0.5,1-0.7,1.6-1.8c0.6-1.2,5.2-13.2,5.2-13.2S140.2,3.5,140.2,3.5z"/>
						</g>
					</g>
				</g>
				<path d="M56,8.5c0-3.1-2.5-5.5-5.5-5.5c-3.1,0-5.5,2.5-5.5,5.5c0,3.1,2.5,5.5,5.5,5.5C53.5,14,56,11.6,56,8.5z"/>
			</g>
		</g>
	</g>
</g>
</svg>
