<svg id="svg971" xmlns="http://www.w3.org/2000/svg" xmlns:xlink="http://www.w3.org/1999/xlink" viewBox="0 0 340.86563 348.09345">
  <defs>
    <style>
      .cls-1 {
        fill: #fff;
      }

      .cls-1, .cls-3, .cls-4 {
        fill-rule: evenodd;
      }

      .cls-2 {
        mask: url(#mask);
      }

      .cls-3 {
        fill: #002ff4;
      }

      .cls-4 {
        fill: #64d662;
      }

      .cls-5 {
        fill: #f1cf4b;
      }
    </style>
    <mask id="mask" x="0" y="-0.00001" width="340.86592" height="348.09346" maskUnits="userSpaceOnUse">
      <g id="mask-6">
        <g id="use961">
          <polygon id="path-5" class="cls-1" points="340.866 348.093 0 348.093 0 0 340.866 0 340.866 348.093"/>
        </g>
      </g>
    </mask>
  </defs>
  <title>Монтажная область 2</title>
  <g id="_atoms_logo_dkids_plus_horizontal" data-name="*atoms/logo/dkids_plus_horizontal">
    <g id="Group-8-Copy">
      <g id="Group-3">
        <g class="cls-2">
          <path id="Fill-1" class="cls-3" d="M309.962,315.44958a37.8893,37.8893,0,0,1-53.56029,0l-63.58929-63.58929a3.41457,3.41457,0,0,0-5.82909,2.41841v34.37a37.92173,37.92173,0,0,1-39.036,37.85913c-20.58876-.60921-36.72376-18.055-36.72376-38.65757v-71.366a76.49127,76.49127,0,0,0,0-136.3353V56.75405c0-20.61182,16.13962-38.053,36.733-38.66679.37848-.00924.76615-.01382,1.14459-.01382A37.9206,37.9206,0,0,1,186.98335,55.951v95.08853a3.41226,3.41226,0,0,0,5.82909,2.41379l62.66624-62.66162A37.86605,37.86605,0,0,1,289.221,80.31043a36.403,36.403,0,0,1,14.455,5.986,37.91739,37.91739,0,0,1,5.36758,58.06481L253.15718,200.243a3.41788,3.41788,0,0,0,0,4.83219L309.962,261.88a37.87814,37.87814,0,0,1,0,53.56952M323.974,249.608l-43.59129-43.59129a2.2731,2.2731,0,0,1,0-3.23069l41.98056-41.98056a59.31165,59.31165,0,0,0,17.58884-41.399,57.68883,57.68883,0,0,0-98.4854-40.88212l-34.67459,34.67V58.67864C206.79213,26.33939,180.9235.0277,149.115,0h-.17076c-.27694.00462-.55848.00462-.84.00923A57.95473,57.95473,0,0,0,91.41019,57.69558V73.27214a76.50284,76.50284,0,1,0,0,150.08882V289.4102c0,32.35309,25.8871,58.674,57.70481,58.674l.87691-.00461A57.93133,57.93133,0,0,0,206.57981,295.387l35.80533,35.81455a57.314,57.314,0,0,0,40.7852,16.89191h.00894a57.67261,57.67261,0,0,0,57.68635-57.66789v-.04589a57.31705,57.31705,0,0,0-16.89192-40.77137"/>
        </g>
      </g>
      <path id="Fill-4" class="cls-4" d="M153.01121,148.29439v.04648a76.48686,76.48686,0,0,1-41.78211,68.14v71.366c0,20.60721,16.12578,38.04833,36.72377,38.66218A37.91557,37.91557,0,0,0,186.975,288.64992V254.28a3.42328,3.42328,0,0,1,5.83833-2.423L256.398,315.44621a37.87773,37.87773,0,0,0,53.5649-53.56951l-56.80484-56.80023a3.41788,3.41788,0,0,1,0-4.83219l55.88642-55.88672a37.91738,37.91738,0,0,0-5.36757-58.06479,36.45058,36.45058,0,0,0-14.45505-5.98141,37.83681,37.83681,0,0,0-33.7423,10.4813l-62.66622,62.66161a3.41864,3.41864,0,0,1-5.83833-2.41378V55.95193a37.90975,37.90975,0,0,0-37.873-37.87759c-.37847,0-.76152.00462-1.14459.01383-20.60258.60921-36.72838,18.055-36.72838,38.66679V80.1498a76.48914,76.48914,0,0,1,41.78211,68.14456"/>
    </g>
  </g>
  <path class="cls-5" d="M86.23853,98.32251H39.67939v96.80078H86.23853c22.53284,0,43.65082-26.339,43.65082-48.40033S108.77137,98.32251,86.23853,98.32251ZM101.60114,146.723a23.54828,23.54828,0,0,1-23.47925,23.47925H66.66V123.24359H78.12182a23.54834,23.54834,0,0,1,23.47932,23.47932Z"/>
</svg>
