<?xml version="1.0" encoding="utf-8"?>
<!-- Generator: Adobe Illustrator 26.0.1, SVG Export Plug-In . SVG Version: 6.00 Build 0)  -->
<svg version="1.1" id="Layer_1" xmlns="http://www.w3.org/2000/svg" xmlns:xlink="http://www.w3.org/1999/xlink" x="0px" y="0px"
	 width="500px" height="93.9px" viewBox="0 0 500 93.9" style="enable-background:new 0 0 500 93.9;" xml:space="preserve">
<style type="text/css">
	.st0{fill:#ED1C24;}
</style>
<g>
	<path class="st0" d="M260.3,0.1c0,0-129.8,0-137.2,0c-14.1,0-23.3,7.4-24.7,18.5c-0.5,4.1-1,7.7-1,7.7h182.9c0,0,0.4-2.7,0.6-4.9
		C282.3,10.3,277.5,0.1,260.3,0.1"/>
	<path class="st0" d="M279.1,36.2c0,0-0.4,3.7-1,7.7c-1.1,8-7,13.9-18.1,13.9h-39l-4.4,35.5h-31l7-57H279.1z"/>
	<polygon class="st0" points="94.4,0.1 91.1,26.3 8.2,26.3 11.4,0.1 	"/>
	<polygon class="st0" points="7,36.2 90,36.2 87.2,57.8 35.4,57.8 34.1,68.5 86,68.5 82.9,93.3 0,93.3 	"/>
	<path class="st0" d="M289.8,0.1h67.6c10.6,0,21.8,5,19.6,22.1c-0.4,3-0.5,4-0.5,4h-90L289.8,0.1z"/>
	<polygon class="st0" points="285.4,36.1 316.4,36.2 309.3,93.2 278.4,93.3 	"/>
	<polygon class="st0" points="344.3,36.1 375.3,36.2 368.3,93.2 337.3,93.3 	"/>
	<path class="st0" d="M164.3,36.2H96.2c-2.2,14.8,5.2,21.6,15.7,21.6h42l-1.3,10.6H92.2l-3,24.7c0,0,65.7,0,68.4,0
		c2.1-0.2,17.6-0.6,22.8-13.2c1.7-4.1,3.2-18.8,3.6-21.8C186.4,40.4,174.1,36.2,164.3,36.2"/>
	<path class="st0" d="M469.2,0.2l-4.5,36.4h-28l1.1-9.3L441.5,0h-31.4l-2.4,21.9l-1.9,14.7l0,0c-2.2,14.8,5.2,21.6,15.7,21.6H462
		l-4.4,35.7h30.9L500,0.1L469.2,0.2z"/>
</g>
</svg>
