<?xml version="1.0" encoding="utf-8"?>
<!-- Generator: Adobe Illustrator 23.0.3, SVG Export Plug-In . SVG Version: 6.00 Build 0)  -->
<svg version="1.1"
	 id="svg2" inkscape:version="0.91 r13725" sodipodi:docname="ESPN.svg" xmlns:cc="http://creativecommons.org/ns#" xmlns:dc="http://purl.org/dc/elements/1.1/" xmlns:inkscape="http://www.inkscape.org/namespaces/inkscape" xmlns:rdf="http://www.w3.org/1999/02/22-rdf-syntax-ns#" xmlns:sodipodi="http://sodipodi.sourceforge.net/DTD/sodipodi-0.dtd" xmlns:svg="http://www.w3.org/2000/svg"
	 xmlns="http://www.w3.org/2000/svg" xmlns:xlink="http://www.w3.org/1999/xlink" x="0px" y="0px" viewBox="0 0 1000 246.9"
	 style="enable-background:new 0 0 1000 246.9;" xml:space="preserve">
<style type="text/css">
	.st0{fill:#ED1C24;}
</style>
<g>
	<g>
		<polygon class="st0" points="30.3,0 21.8,69.3 241.6,69.3 250.1,0 		"/>
		<polygon class="st0" points="18.6,95.7 0,246.9 219.8,246.9 227.9,181.3 90.3,181.3 93.7,153 231.3,153 238.4,95.7 18.6,95.7 		
			"/>
		<polygon class="st0" points="30.3,0 30.3,0 30.3,0 		"/>
	</g>
	<g>
		<path class="st0" d="M689.9,0L689.9,0c0,0-344.1,0-363.8,0v0h0c-37.3,0-61.9,19.6-65.4,48.9c-1.3,10.8-2.5,20.3-2.5,20.3h484.7
			c0,0,0.9-7.2,1.6-12.9C748.1,26.8,735.6,0,689.9,0z"/>
		<path class="st0" d="M435.5,95.7c-14.2,0-152.5,0-180.5,0c-6,39.5,13.7,57.3,41.7,57.3c15.2,0,111.2,0,111.2,0l-3.5,28.3l-159.9,0
			l-8.1,65.6c0,0,174.1,0.1,181.2,0c5.8-0.4,46.6-1.5,60.4-34.8c4.5-10.8,8.5-49.6,9.6-57.7C494,107,461.3,95.7,435.5,95.7z"/>
		<path class="st0" d="M510.8,95.7L510.8,95.7l-18.6,151.2h82.2L586,153h103.2c29.3,0,45-15.7,47.9-36.9c1.5-10.7,2.5-20.4,2.5-20.4
			L510.8,95.7L510.8,95.7z"/>
	</g>
	<g>
		<polygon class="st0" points="756.4,95.7 756.4,95.7 737.8,246.9 820,246.9 838.6,95.7 756.4,95.7 		"/>
		<polygon class="st0" points="912.5,95.7 893.9,246.9 976.1,246.9 994.7,95.7 912.5,95.7 		"/>
		<path class="st0" d="M947.4,0L768.1,0v0l-8.5,69.3h238.3c0,0,0.3-2.5,1.3-10.7C1005.1,13.2,975.7,0,947.4,0z"/>
	</g>
</g>
</svg>
