<?xml version="1.0" encoding="UTF-8" standalone="no"?>
<svg
   xmlns:dc="http://purl.org/dc/elements/1.1/"
   xmlns:cc="http://creativecommons.org/ns#"
   xmlns:rdf="http://www.w3.org/1999/02/22-rdf-syntax-ns#"
   xmlns:svg="http://www.w3.org/2000/svg"
   xmlns="http://www.w3.org/2000/svg"
   xmlns:sodipodi="http://sodipodi.sourceforge.net/DTD/sodipodi-0.dtd"
   xmlns:inkscape="http://www.inkscape.org/namespaces/inkscape"
   width="1000"
   height="1000.0001"
   viewBox="0 0 264.58333 264.58337"
   version="1.1"
   id="svg2570"
   inkscape:version="1.0.1 (3bc2e813f5, 2020-09-07)"
   sodipodi:docname="France 24 2013.svg">
  <defs
     id="defs2564" />
  <sodipodi:namedview
     id="base"
     pagecolor="#ffffff"
     bordercolor="#666666"
     borderopacity="1.0"
     inkscape:pageopacity="0.0"
     inkscape:pageshadow="2"
     inkscape:zoom="0.21459759"
     inkscape:cx="400"
     inkscape:cy="560"
     inkscape:document-units="px"
     inkscape:current-layer="layer1"
     inkscape:document-rotation="0"
     showgrid="false"
     units="px"
     inkscape:window-width="1600"
     inkscape:window-height="837"
     inkscape:window-x="-8"
     inkscape:window-y="-8"
     inkscape:window-maximized="1" />
  <metadata
     id="metadata2567">
    <rdf:RDF>
      <cc:Work
         rdf:about="">
        <dc:format>image/svg+xml</dc:format>
        <dc:type
           rdf:resource="http://purl.org/dc/dcmitype/StillImage" />
        <dc:title></dc:title>
      </cc:Work>
    </rdf:RDF>
  </metadata>
  <g
     inkscape:label="Layer 1"
     inkscape:groupmode="layer"
     id="layer1">
    <g
       id="g3153"
       transform="matrix(2.2494932,0,0,2.2494932,34.116771,-65.549929)">
      <g
         id="g1664"
         transform="matrix(2.2039005,0,0,-2.2039005,40.440408,105.47526)">
        <path
           d="m 0,0 c 1.215,-0.818 4.547,-0.8 8.1,0.045 4.416,1.05 7.787,3.003 7.504,4.366 -0.046,0.222 -0.199,0.424 -0.445,0.59 C 13.934,5.823 10.607,5.803 7.061,4.959 3.508,4.114 0.488,2.629 -0.281,1.342 -0.442,1.078 -0.5,0.818 -0.451,0.601 -0.404,0.374 -0.252,0.172 0,0"
           style="fill:#00b3f0;fill-opacity:1;fill-rule:nonzero;stroke:none"
           id="path1666" />
      </g>
      <g
         id="g1668"
         transform="matrix(2.2039005,0,0,-2.2039005,102.45244,146.76027)">
        <path
           d="M 0,0 V 2.609 C -2.673,1.619 -5.205,0.755 -7.605,0 Z"
           style="fill:#00b3f0;fill-opacity:1;fill-rule:nonzero;stroke:none"
           id="path1670" />
      </g>
      <g
         id="g1672"
         transform="matrix(2.2039005,0,0,-2.2039005,26.883996,105.59097)">
        <path
           d="M 0,0 C 0.028,0.015 0.064,0.015 0.079,-0.014 0.103,-0.041 0.093,-0.081 0.073,-0.1 -1.317,-1.287 -1.94,-2.409 -1.742,-3.354 -1.638,-3.855 -1.302,-4.3 -0.75,-4.672 1.731,-6.34 8.316,-6.359 15.266,-4.709 24.038,-2.62 30.698,1.369 30.1,4.203 c -0.208,0.943 -1.227,1.682 -2.952,2.118 -0.032,0.016 -0.054,0.042 -0.045,0.084 0.007,0.028 0.04,0.05 0.07,0.047 C 30.004,5.991 31.667,5.011 31.96,3.611 32.096,2.989 31.94,2.305 31.509,1.588 29.703,-1.433 23.325,-4.69 15.639,-6.516 7.953,-8.337 0.878,-8.281 -1.973,-6.363 -2.653,-5.902 -3.06,-5.362 -3.192,-4.727 -3.483,-3.325 -2.382,-1.692 0,0 M 13.121,5.426 C 18.508,6.704 23.204,6.268 23.591,4.447 23.661,4.102 23.581,3.719 23.34,3.33 22.337,1.656 18.797,-0.146 14.512,-1.169 9.124,-2.441 4.431,-2.008 4.045,-0.193 3.665,1.625 7.726,4.146 13.121,5.426 m 3.913,-18.55 c -10.77,-2.555 -20.752,-2.425 -24.846,0.326 -0.999,0.673 -1.604,1.48 -1.801,2.412 -0.31,1.473 0.462,3.18 2.233,4.943 0.025,0.019 0.063,0.019 0.084,0 0.023,-0.018 0.028,-0.07 0.01,-0.093 -0.875,-1.152 -1.214,-2.236 -1.006,-3.21 0.164,-0.789 0.689,-1.486 1.554,-2.062 3.758,-2.53 13.134,-2.604 23.327,-0.192 7.175,1.71 13.605,4.371 17.699,7.318 V 34.689 H -19.08 V -18.68 h 4.909 c -0.377,0.526 -0.639,1.088 -0.767,1.69 -0.063,0.303 -0.094,0.612 -0.094,0.92 0,1.318 0.565,2.728 1.683,4.207 0.013,0.018 0.055,0.028 0.079,0.004 l 0.023,-0.08 c -0.629,-1.159 -0.838,-2.252 -0.629,-3.255 0.305,-1.439 1.453,-2.607 3.261,-3.486 h 27.704 c 0.362,0.082 0.722,0.157 1.086,0.244 5.872,1.397 11.42,3.329 16.113,5.604 v 6.507 c -4.403,-2.783 -10.503,-5.199 -17.254,-6.799"
           style="fill:#00b3f0;fill-opacity:1;fill-rule:nonzero;stroke:none"
           id="path1674" />
      </g>
      <g
         id="g1680"
         transform="matrix(2.2039005,0,0,-2.2039005,64.54557,146.76027)">
        <path
           d="m 0,0 h 9.595 c 2.4,0.755 4.932,1.619 7.605,2.609 V 5.848 C 12.507,3.573 6.958,1.641 1.087,0.244 0.722,0.157 0.362,0.082 0,0"
           style="fill:#ffffff;fill-opacity:1;fill-rule:nonzero;stroke:none"
           id="path1682" />
      </g>
      <g
         id="g1684"
         transform="matrix(2.2039005,0,0,-2.2039005,-3.6977686,139.07659)">
        <path
           d="M 0,0 C -0.209,1.003 0,2.096 0.63,3.255 L 0.606,3.334 C 0.582,3.359 0.541,3.35 0.527,3.331 -0.591,1.852 -1.156,0.442 -1.156,-0.876 c 0,-0.308 0.031,-0.617 0.094,-0.92 0.128,-0.602 0.39,-1.165 0.768,-1.69 H 3.261 C 1.453,-2.607 0.305,-1.44 0,0"
           style="fill:#ffffff;fill-opacity:1;fill-rule:nonzero;stroke:none"
           id="path1686" />
      </g>
      <g
         id="g1688"
         transform="matrix(2.2039005,0,0,-2.2039005,22.534378,119.61549)">
        <path
           d="m 0,0 c 2.852,-1.917 9.926,-1.973 17.612,-0.152 7.687,1.825 14.065,5.083 15.871,8.103 0.431,0.717 0.586,1.402 0.45,2.024 -0.292,1.4 -1.955,2.38 -4.786,2.841 -0.03,0.002 -0.063,-0.02 -0.071,-0.048 -0.008,-0.041 0.013,-0.068 0.046,-0.083 1.725,-0.436 2.744,-1.176 2.951,-2.118 C 32.672,7.733 26.011,3.744 17.239,1.655 10.29,0.005 3.704,0.023 1.223,1.692 0.671,2.064 0.335,2.508 0.232,3.009 0.033,3.954 0.656,5.077 2.047,6.264 2.067,6.282 2.077,6.322 2.052,6.349 2.038,6.379 2.001,6.379 1.973,6.363 -0.409,4.672 -1.509,3.038 -1.218,1.636 -1.087,1.002 -0.679,0.461 0,0"
           style="fill:#ffffff;fill-opacity:1;fill-rule:nonzero;stroke:none"
           id="path1690" />
      </g>
      <g
         id="g1696"
         transform="matrix(2.2039005,0,0,-2.2039005,12.033232,129.41161)">
        <path
           d="m 0,0 c -0.865,0.576 -1.39,1.273 -1.554,2.063 -0.207,0.974 0.132,2.057 1.007,3.21 0.018,0.022 0.012,0.075 -0.011,0.093 -0.021,0.018 -0.059,0.018 -0.083,0 -1.771,-1.764 -2.544,-3.47 -2.233,-4.943 0.197,-0.932 0.802,-1.739 1.8,-2.413 4.095,-2.75 14.077,-2.881 24.847,-0.326 6.75,1.6 12.85,4.016 17.254,6.799 V 7.126 C 36.932,4.18 30.502,1.519 23.327,-0.192 13.134,-2.604 3.758,-2.53 0,0"
           style="fill:#ffffff;fill-opacity:1;fill-rule:nonzero;stroke:none"
           id="path1698" />
      </g>
      <g
         id="g1700"
         transform="matrix(2.2039005,0,0,-2.2039005,39.820671,102.51851)">
        <path
           d="M 0,0 C 0.77,1.287 3.789,2.772 7.342,3.617 10.888,4.462 14.215,4.481 15.44,3.659 15.686,3.493 15.839,3.292 15.885,3.07 16.168,1.706 12.797,-0.247 8.381,-1.297 4.828,-2.142 1.496,-2.16 0.281,-1.342 0.029,-1.169 -0.123,-0.968 -0.169,-0.74 -0.219,-0.524 -0.161,-0.264 0,0 m 8.642,-2.563 c 4.285,1.024 7.825,2.824 8.829,4.499 0.239,0.389 0.32,0.772 0.25,1.117 C 17.334,4.874 12.638,5.31 7.251,4.032 1.856,2.752 -2.205,0.231 -1.825,-1.587 -1.439,-3.402 3.254,-3.836 8.642,-2.563"
           style="fill:#ffffff;fill-opacity:1;fill-rule:nonzero;stroke:none"
           id="path1702" />
      </g>
      <g
         id="g1736"
         transform="matrix(2.2039005,0,0,-2.2039005,52.805171,52.216907)">
        <path
           d="m 0,0 h -0.019 l -1.953,3.793 h -2.119 v -7.102 h 1.959 v 3.883 h 0.015 l 2.061,-3.883 H 1.955 V 3.793 H 0 Z m 6.285,-1.706 c -0.958,0 -1.275,0.99 -1.275,1.95 0,0.954 0.317,1.953 1.275,1.953 0.853,0 1.044,-0.79 1.085,-1.048 H 9.377 C 9.199,2.932 8.188,3.958 6.343,3.962 4.278,3.962 2.94,2.482 2.94,0.244 c 0,-2.103 1.231,-3.721 3.403,-3.721 1.96,0 3.062,1.522 3.062,2.953 H 7.374 C 7.249,-1.19 6.982,-1.706 6.285,-1.706 m -18.47,3.103 c 0,1.547 -0.881,2.396 -2.479,2.396 h -3.424 v -7.102 h 2.033 v 2.416 h 0.702 c 0.093,-0.188 1.18,-2.416 1.18,-2.416 h 2.191 c 0,0 -1.237,2.452 -1.426,2.795 0.748,0.327 1.223,1.046 1.223,1.911 m -2.607,-0.66 h -1.263 v 1.424 h 1.263 c 0.438,0 0.655,-0.239 0.655,-0.713 0,-0.469 -0.217,-0.711 -0.655,-0.711 m 30.647,1.408 v 1.658 h -5.534 v -7.112 h 5.534 v 1.654 h -3.331 v 1.077 h 2.76 v 1.651 h -2.76 v 1.072 z m -40.03,-5.454 h 2.203 v 2.403 h 2.406 v 1.663 h -2.406 v 1.388 h 3.022 v 1.658 h -5.225 z m 14.908,7.102 -2.401,-7.102 h 2.154 l 0.247,0.942 h 2.181 l 0.264,-0.942 h 2.186 l -2.399,7.102 z m 0.417,-4.683 0.68,2.546 0.707,-2.546 z"
           style="fill:#ffffff;fill-opacity:1;fill-rule:nonzero;stroke:none"
           id="path1738" />
      </g>
      <g
         id="g1740"
         transform="matrix(2.2039005,0,0,-2.2039005,41.473376,79.463509)">
        <path
           d="M 0,0 V 7.157 H -3.463 L -8.997,0.327 V -2.55 h -5.264 v 0.018 c 2.283,1.478 5.307,2.512 5.307,5.801 0,2.728 -1.998,4.033 -4.945,4.033 -3.255,0 -5.326,-2.023 -5.134,-5.551 h 3.274 c -0.041,1.569 0.433,2.64 1.829,2.64 0.809,0 1.46,-0.407 1.46,-1.566 0,-0.945 -1.015,-1.454 -1.634,-1.86 -1.554,-1.003 -3.287,-1.981 -4.305,-3.476 -0.594,-0.867 -0.939,-1.943 -0.868,-3.177 H -8.78 v 2.556 h 5.16 V -5.688 H 0 v 2.556 H 1.638 V 0 Z m -3.62,0 h -2.955 l 2.955,3.595 z"
           style="fill:#ffffff;fill-opacity:1;fill-rule:nonzero;stroke:none"
           id="path1742" />
      </g>
    </g>
  </g>
</svg>
