<svg id="svg2" version="1.1" inkscape:version="1.1.2 (b8e25be833, 2022-02-05)" sodipodi:docname="HBO_Family.svg" xmlns:inkscape="http://www.inkscape.org/namespaces/inkscape" xmlns:sodipodi="http://sodipodi.sourceforge.net/DTD/sodipodi-0.dtd" xmlns="http://www.w3.org/2000/svg" xmlns:svg="http://www.w3.org/2000/svg" viewBox="-0.02 -0.02 353.03 254.03">
  <defs id="defs16"/>
  <sodipodi:namedview id="namedview14" pagecolor="#ffffff" bordercolor="#666666" borderopacity="1.0" inkscape:pageshadow="2" inkscape:pageopacity="0.0" inkscape:pagecheckerboard="0" showgrid="false" inkscape:zoom="2.8307087" inkscape:cx="176.45758" inkscape:cy="127" inkscape:window-width="1920" inkscape:window-height="1001" inkscape:window-x="-9" inkscape:window-y="-9" inkscape:window-maximized="1" inkscape:current-layer="layer1"/>
  <g inkscape:label="Layer 1" inkscape:groupmode="layer" id="layer1" transform="translate(-165.90612,-534.31385)">
    <path id="path37591" d="m 342.40553,666.79927 c 70.9426,0 134.35217,7.21851 176.49941,18.54164 -35.54207,-19.28078 -101.27918,-32.23949 -176.49941,-32.23949 -75.22023,0 -140.95734,12.95871 -176.49941,32.23949 42.14724,-11.32313 105.57253,-18.54164 176.49941,-18.54164" style="fill: rgb(252, 198, 7); fill-rule: nonzero; stroke: none; --darkreader-inline-fill: #fccc1f; --darkreader-inline-stroke: none;" data-darkreader-inline-fill="" data-darkreader-inline-stroke=""/>
    <path id="path37595" d="m 220.98375,736.43028 c 1.50975,8.38227 3.34976,13.35187 3.34976,13.35187 l -13.38332,-0.0315 c 0,0 -4.68652,-11.04006 -4.68652,-34.62993 0,-20.96353 7.37577,-32.01931 7.37577,-32.01931 l 40.54312,0 0,10.48963 -31.40598,0 c 0,0 -2.51625,6.82533 -3.1925,12.88007 -0.39316,3.56993 -0.14154,4.95387 -0.14154,4.95387 l 22.20594,0 0,9.48313 -22.31602,0.12581 c 0,0 0.42462,8.61816 1.65129,15.39632" style="fill: rgb(32, 86, 174); fill-rule: nonzero; stroke: none; --darkreader-inline-fill: #6ca9e4; --darkreader-inline-stroke: none;" data-darkreader-inline-fill="" data-darkreader-inline-stroke=""/>
    <path id="path37599" d="m 273.90369,728.3248 -5.78738,0 c -7.7532,0 -8.94842,4.54498 -8.94842,7.28141 0,3.22395 3.27112,4.93814 6.11764,4.93814 5.12686,0 9.27868,-4.43489 9.27868,-4.43489 0,0 -0.66052,-3.85301 -0.66052,-7.78466 m 12.43973,1.41539 c 0,6.66807 2.62633,11.30741 8.30363,15.34915 l -10.48963,5.75592 c -2.06018,-1.3053 -4.57643,-4.52925 -5.34704,-5.55148 0,0 -5.01677,5.96037 -13.9652,5.96037 -9.16859,0 -18.33719,-6.46362 -18.33719,-15.64794 0,-10.00211 9.82911,-16.16693 21.60832,-16.16693 l 5.78738,0 c 0,-4.34053 -2.7207,-7.07696 -7.97337,-7.07696 -2.28036,0 -5.99183,0.61334 -8.83834,2.4219 l -4.46635,-9.18433 c 0,0 5.23695,-3.83728 13.30469,-3.83728 13.54058,0 20.4131,7.97337 20.4131,18.17992 l 0,9.79766" style="fill: rgb(5, 161, 230); fill-rule: nonzero; stroke: none; --darkreader-inline-fill: #2cbbfa; --darkreader-inline-stroke: none;" data-darkreader-inline-fill="" data-darkreader-inline-stroke=""/>
    <path id="path37603" d="m 339.61878,708.82699 c 0,0 7.42294,-7.26568 14.51563,-7.26568 8.72825,0 16.37137,5.64584 16.37137,14.24828 l 0,33.93796 -12.43972,0 0,-28.49656 c 0,-3.4284 0,-7.56449 -5.01678,-7.56449 -5.23695,0 -9.82911,7.97338 -9.82911,7.97338 l 0,28.08767 -12.43973,0 0,-28.49656 c 0,-3.4284 0,-7.56449 -5.01678,-7.56449 -5.25268,0 -9.82911,7.97338 -9.82911,7.97338 l 0,28.08767 -12.43973,0 0,-26.48356 c 0,-6.65235 -2.62633,-11.30741 -8.30363,-15.34914 l 10.48963,-5.75593 c 3.16104,2.12309 6.32208,6.96687 6.32208,6.96687 0,0 7.75321,-7.56448 14.8459,-7.56448 8.2879,0 12.54981,6.76243 12.76998,7.26568" style="fill: rgb(128, 203, 40); fill-rule: nonzero; stroke: none; --darkreader-inline-fill: #96db46; --darkreader-inline-stroke: none;" data-darkreader-inline-fill="" data-darkreader-inline-stroke=""/>
    <path style="fill: rgb(252, 198, 7); fill-rule: nonzero; stroke: none; --darkreader-inline-fill: #fccc1f; --darkreader-inline-stroke: none;" d="m 398.01786,749.74283 -12.6599,0 0,-46.47204 12.6599,0 z m 1.19522,-61.01913 c 0,3.83729 -3.38121,6.96688 -7.53303,6.96688 -4.13609,0 -7.53303,-3.12959 -7.53303,-6.96688 0,-3.83729 3.39694,-6.96687 7.53303,-6.96687 4.15182,0 7.53303,3.12958 7.53303,6.96687" id="path37605" data-darkreader-inline-fill="" data-darkreader-inline-stroke=""/>
    <path style="fill: rgb(245, 113, 21); fill-rule: nonzero; stroke: none; --darkreader-inline-fill: #f67e2a; --darkreader-inline-stroke: none;" d="m 426.60878,749.74283 -12.65989,0 0,-69.7002 12.65989,0 z" id="path37607" data-darkreader-inline-fill="" data-darkreader-inline-stroke=""/>
    <path id="path37611" d="m 446.35822,770.18109 c 5.00105,-7.58021 10.45818,-16.41855 10.45818,-16.41855 l -21.04217,-48.26487 12.43973,-3.23968 15.42777,37.61798 c 0,0 3.05096,-7.29713 5.64585,-16.29273 3.64856,-12.62845 4.46634,-21.32525 4.46634,-21.32525 l 12.45546,3.23968 c 0,0 -5.9761,28.79537 -15.74231,48.68949 -9.10569,18.51019 -22.662,34.12668 -22.662,34.12668 l -10.25373,-6.13337 c 0,0 3.34976,-3.7272 8.80688,-11.99938" style="fill: rgb(240, 47, 44); fill-rule: nonzero; stroke: none; --darkreader-inline-fill: #f13e3c; --darkreader-inline-stroke: none;" data-darkreader-inline-fill="" data-darkreader-inline-stroke=""/>
    <path id="path37619" d="m 295.37991,636.98482 -27.42716,0 0,-39.17491 -17.80249,0 0,39.17491 -28.1663,0 -0.0944,-100.98037 28.26066,0 0,37.5708 17.80249,0 0,-37.5708 27.42716,0 z" style="fill: rgb(34, 30, 31); fill-rule: nonzero; stroke: none; --darkreader-inline-fill: #d4d0ca; --darkreader-inline-stroke: none;" data-darkreader-inline-fill="" data-darkreader-inline-stroke=""/>
    <path id="path37623" d="m 421.06516,534.31385 c -28.26066,-0.0157 -42.68193,20.77481 -46.25187,29.1728 0.0315,-12.59699 -12.39254,-27.47433 -26.9239,-27.49006 l -46.80231,0 0,100.94892 43.64126,0.0157 c 17.59805,0 30.11641,-15.23905 30.13213,-28.30784 4.02601,8.225 17.94403,28.8111 46.20469,28.8111 28.27639,-0.0157 51.30011,-23.51124 51.30011,-51.80336 0,-28.88973 -23.02372,-51.33156 -51.30011,-51.34728 m -72.78261,70.59661 c 0,4.54499 -3.17677,8.52381 -7.2185,8.52381 l -13.87084,0 0,-17.04761 0,0 0,-0.17299 13.88657,0 c 4.04173,0 7.2185,3.99455 7.2185,8.53953 0,0.0315 -0.0157,0.0629 -0.0157,0.11008 0,0.0157 0,0.0315 0,0.0472 m -7.15559,-29.37725 -13.88657,0 0,-0.20444 -0.0472,0 0,-17.06334 13.88657,0 c 3.53848,0 6.41644,3.06668 7.07696,6.88824 0.11008,0.59761 0.18872,1.21095 0.18872,1.85574 0,4.54498 -3.1925,8.5238 -7.2185,8.5238 m 18.463,10.14365 c 3.1925,-0.39317 8.49236,-4.04173 10.34809,-6.35354 -0.64479,2.87796 -0.70769,11.19732 0.0629,14.07529 -2.12309,-3.27113 -7.17132,-7.31286 -10.411,-7.72175 m 61.49093,25.69723 c -5.34704,0 -10.31664,-1.63557 -14.42127,-4.4349 -6.93543,-4.59216 -11.51186,-12.45545 -11.51186,-21.40387 0,-14.18538 11.51186,-25.69723 25.69723,-25.69723 5.34704,0 10.31664,1.63556 14.42128,4.43489 6.93542,4.60789 11.51185,12.45545 11.51185,21.40388 0,14.2011 -11.51185,25.69723 -25.69723,25.69723 m 19.97276,-25.83877 c 0,-6.95115 -3.50703,-13.06879 -8.85407,-16.70163 -3.19249,-2.10736 -7.01405,-3.34976 -11.11869,-3.34976 -11.16587,0 -20.20866,9.04278 -20.20866,20.19293 0,6.95115 3.52276,13.06879 8.85407,16.71735 3.1925,2.10736 7.01405,3.34976 11.11869,3.34976 11.16587,0 20.20866,-9.04278 20.20866,-20.20865" style="fill: rgb(34, 30, 31); fill-rule: nonzero; stroke: none; --darkreader-inline-fill: #d4d0ca; --darkreader-inline-stroke: none;" data-darkreader-inline-fill="" data-darkreader-inline-stroke=""/>
  </g>
</svg>