<?xml version="1.0" encoding="utf-8"?>
<!-- Generator: Adobe Illustrator 24.0.0, SVG Export Plug-In . SVG Version: 6.00 Build 0)  -->
<svg version="1.1" id="Capa_1" xmlns="http://www.w3.org/2000/svg" xmlns:xlink="http://www.w3.org/1999/xlink" x="0px" y="0px"
	 viewBox="0 0 512 346.4" style="enable-background:new 0 0 512 346.4;" xml:space="preserve">
<style type="text/css">
	.st0{fill:#1E1E1E;}
</style>
<g>
	<g>
		<path class="st0" d="M150.1,209.8H93.9v-80.3H57.2v80.3H0V3h57.7v76.8h36.6V3.5h56.2v206.3H150.1z M407.1,210.8
			c57.7,0,104.9-48.2,104.9-105.9C512,45.7,464.8,0,407.1,0s-87.3,42.7-94.9,59.7c0-25.6-25.1-56.2-55.2-56.2h-95.4v206.8H251
			c36.1,0,61.7-31.1,61.7-57.7C320.8,168.7,349.4,210.8,407.1,210.8z M243.5,127c8,0,14.6,8,14.6,17.6s-6.5,17.6-14.6,17.6h-28.6
			V127H243.5z M244,49.2c8,0,14.6,8,14.6,17.6S252,84.3,244,84.3h-28.6V49.2H244z M281.6,104.9c6.5-1,17.6-8,21.1-13.1
			c-1.5,6-1.5,23.1,0,28.6C298.7,113.9,288.1,105.9,281.6,104.9z M354.9,104.9c0-29.1,23.6-52.7,52.7-52.7s52.7,23.6,52.7,52.7
			s-23.6,52.7-52.7,52.7C378.5,157.6,354.9,134,354.9,104.9z M407.1,146.1c22.6,0,41.2-18.6,41.2-41.2s-18.6-41.2-41.2-41.2
			c-22.6,0-41.2,18.6-41.2,41.2C365.9,128,384.5,146.1,407.1,146.1z"/>
	</g>
	<g>
		<path class="st0" d="M235.4,289.6c4-4,6-9,6-15.6s-2.5-11.5-7-15.6c-5-3.5-11.5-5.5-20.6-5.5h-24.1l-15.1,80.8h14.1l6-34.6h10.5
			l15.6,34.6h16.1l-17.1-36.1C226.4,296.2,231.4,293.6,235.4,289.6z M196.8,287.6l4-23.1h10c4.5,0,8.5,1,11.5,2.5c3,1.5,4,4.5,4,8
			c0,4.5-1.5,7.5-5,9.5c-3.5,2-8,3-14.6,3H196.8z"/>
		<polygon class="st0" points="181.2,253 128.5,253 117.5,253 105.4,253 84.8,278.6 74.8,253 53.2,253 71.3,291.1 58.7,304.7 
			21.6,346.4 46.7,346.4 80.3,305.2 80.3,305.2 80.3,304.7 92.4,333.8 114.4,333.8 94.4,291.6 113.9,269.1 137,269.1 126,333.8 
			145.1,333.8 156.1,269.1 178.7,269.1 		"/>
		<polygon class="st0" points="295.7,296.7 297.2,287.1 260,287.1 264.5,262.5 303.2,262.5 305.2,253 255,253 240.9,333.8 
			294.1,333.8 295.7,324.3 253.5,324.3 258.5,296.7 		"/>
		<polygon class="st0" points="456.3,260 457.3,253 408.6,253 394.5,333.8 445.7,333.8 447.2,326.8 403.6,326.8 409.1,295.2 
			448.3,295.2 449.3,288.1 410.6,288.1 415.6,260 		"/>
		<polygon class="st0" points="384,253 344.8,319.7 344.3,319.7 329.3,253 316.7,253 302.7,333.8 310.7,333.8 322.8,264 323.3,264 
			340.3,333.8 344.3,333.8 386,264 386.5,264 374,333.8 382,333.8 396.5,253 		"/>
		<polygon class="st0" points="49.2,253 48.7,253 48.2,253 46.7,253 46.2,253 45.7,253 63.7,291.1 12,346.4 13.1,346.4 13.6,346.4 
			16.1,346.4 16.6,346.4 17.1,346.4 67.8,291.1 		"/>
	</g>
</g>
</svg>
