<?xml version="1.0" encoding="utf-8"?>
<!-- Generator: Adobe Illustrator 16.0.0, SVG Export Plug-In . SVG Version: 6.00 Build 0)  -->
<!DOCTYPE svg PUBLIC "-//W3C//DTD SVG 1.1//EN" "http://www.w3.org/Graphics/SVG/1.1/DTD/svg11.dtd">
<svg version="1.1" id="Layer_1" xmlns="http://www.w3.org/2000/svg" xmlns:xlink="http://www.w3.org/1999/xlink" x="0px" y="0px"
	 width="568.375px" height="133.37px" viewBox="0 0 568.375 133.37" enable-background="new 0 0 568.375 133.37"
	 xml:space="preserve">
<g>
	<path fill="#F3DF05" d="M422.706,65.169c0.795-7.203,4.172-13.665,9.241-18.616c0.292-0.278,0.585-0.57,0.874-0.848
		c0.305-0.251,0.61-0.517,0.954-0.781c4.687-3.866,10.38-6.475,16.247-7.534c0.105-0.013,0.225-0.026,0.329-0.065
		c0.835-0.133,1.67-0.253,2.53-0.332c1.071-0.093,2.158-0.145,3.243-0.145c0.265,0,0.531,0.025,0.767,0.025
		c0.889,0.027,1.804,0.094,2.743,0.173c6.671,0.728,13.095,3.496,18.391,8.037l3.508,3.032l15.161-15.676l-3.919-3.403
		c-9.218-7.983-23.224-12.962-36.65-12.962c-35.393,0-56.509,26.627-56.509,52.379c0,25.74,21.116,52.366,56.509,52.366
		c13.427,0,27.433-4.979,36.65-12.963l3.919-3.403l-15.161-15.663l-3.508,3.02c-5.296,4.542-11.72,7.308-18.391,8.036
		c-0.939,0.08-1.854,0.159-2.743,0.172c-0.235,0-0.502,0.027-0.767,0.027c-1.085,0-2.172-0.053-3.243-0.146
		c-0.86-0.078-1.695-0.197-2.53-0.331c-0.104-0.025-0.224-0.04-0.329-0.053c-5.867-1.072-11.561-3.68-16.247-7.547
		c-0.344-0.251-0.649-0.517-0.954-0.78c-0.289-0.278-0.582-0.557-0.874-0.848c-5.069-4.938-8.446-11.427-9.241-18.616
		c-0.104-0.966-0.158-1.96-0.158-2.979c0-0.092-0.026-0.198-0.026-0.291c0-0.105,0.026-0.212,0.026-0.304
		C422.547,67.129,422.601,66.135,422.706,65.169 M343.475,77.919c2.834-6.951,6.938-17.053,11.096-27.169
		c4.157,10.116,8.264,20.218,11.098,27.169H343.475z M345.952,17.53l-32.678,75.959l-10.34,24.071l-0.795,1.813h24.243
		c0,0,6.978-16.934,8.832-21.422h38.715c1.854,4.488,8.844,21.422,8.844,21.422h24.218L363.204,17.53H345.952z M499.818,119.374
		h68.32V98.613h-45.15V78.343h45.15V57.596h-45.15V38.278h45.15V17.53h-68.32V119.374z M211.152,59.356l-13.557-4.342
		c-12.089-3.866-12.089-7.813-12.089-9.719c0-2.912,1.377-9.705,14.181-9.705c12.935,0,22.005,4.938,30.042,11.52
		c0,0,4.449-9.679,9.64-16.63c0,0-12.631-15.412-39.536-15.412c-22.165,0-38.225,12.869-38.225,30.598
		c0,14.088,8.951,23.925,27.394,30.069l13.704,4.608c8.712,2.926,13.134,6.328,13.134,10.088c0,5.27-6.593,9.349-15.027,9.349
		c-13.783,0-16.338-6.29-17.027-12.459H159.86l0.054,1.046c1.853,20.005,16.894,31.936,40.198,31.936
		c23.342,0,39.641-12.672,39.641-30.823C239.752,75.549,230.139,65.421,211.152,59.356 M276.958,68.002h-7.11V37.563h7.11
		c18.232,0,18.232,11.492,18.232,15.266C295.19,56.589,295.19,68.002,276.958,68.002 M317.34,52.829
		c0-17.093-13.268-35.299-37.84-35.299h-31.804v101.844h22.151V88.021h9.653C304.073,88.021,317.34,69.895,317.34,52.829"/>
	<path fill="#F3DF05" d="M66.94,106.399c-20.814,0-37.681-16.736-37.681-37.391c0-14.961,8.884-27.884,21.688-33.856V27.09
		c0-8.766,7.162-15.863,15.994-15.863c8.818,0,15.968,7.097,15.968,15.863l-0.292,7.943c12.977,5.892,22.006,18.894,22.006,33.975
		C104.622,89.663,87.753,106.399,66.94,106.399 M66.94,0C30.105,0,0.236,29.856,0.236,66.691c0,36.821,29.869,66.679,66.704,66.679
		c36.821,0,66.679-29.857,66.679-66.679C133.619,29.856,103.761,0,66.94,0 M66.94,52.683c-8.832,0-15.994,7.097-15.994,15.849
		c0,8.766,7.162,15.85,15.994,15.85c8.818,0,15.968-7.084,15.968-15.85C82.908,59.779,75.758,52.683,66.94,52.683"/>
</g>
</svg>
