<?xml version="1.0" encoding="UTF-8" standalone="no"?>
<svg
   xmlns:dc="http://purl.org/dc/elements/1.1/"
   xmlns:cc="http://creativecommons.org/ns#"
   xmlns:rdf="http://www.w3.org/1999/02/22-rdf-syntax-ns#"
   xmlns:svg="http://www.w3.org/2000/svg"
   xmlns="http://www.w3.org/2000/svg"
   xmlns:xlink="http://www.w3.org/1999/xlink"
   xmlns:sodipodi="http://sodipodi.sourceforge.net/DTD/sodipodi-0.dtd"
   xmlns:inkscape="http://www.inkscape.org/namespaces/inkscape"
   version="1.1"
   id="Camada_1"
   x="0px"
   y="0px"
   viewBox="0 0 1000 577.45337"
   xml:space="preserve"
   sodipodi:docname="Star_Channel_2021.svg"
   width="1000"
   height="577.45337"
   inkscape:version="1.0.2 (e86c870879, 2021-01-15)"><metadata
   id="metadata42"><rdf:RDF><cc:Work
       rdf:about=""><dc:format>image/svg+xml</dc:format><dc:type
         rdf:resource="http://purl.org/dc/dcmitype/StillImage" /></cc:Work></rdf:RDF></metadata><defs
   id="defs40">
	
	

		<linearGradient
   id="SVGID_1_"
   gradientUnits="userSpaceOnUse"
   x1="614.57709"
   y1="488.40689"
   x2="940.79321"
   y2="99.637703"
   gradientTransform="matrix(0.73730001,0,0,0.73730001,-2.65428,0)">
			<stop
   offset="0.28"
   style="stop-color:#FA1660"
   id="stop4" />
			<stop
   offset="0.78"
   style="stop-color:#FF7D17"
   id="stop6" />
		</linearGradient>
		
		
		
		
	<linearGradient
   inkscape:collect="always"
   xlink:href="#SVGID_1_"
   id="linearGradient879"
   x1="529.07745"
   y1="758.49957"
   x2="742.42859"
   y2="545.34412"
   gradientUnits="userSpaceOnUse"
   gradientTransform="matrix(1.2647207,0,0,1.2647207,-226.70966,-608.79913)" /><linearGradient
   y2="117.4916"
   x2="996.28888"
   y1="500.29071"
   x1="613.48981"
   gradientUnits="userSpaceOnUse"
   id="Fill-1_1_"><stop
     id="stop4-9"
     style="stop-color:#FF1C6B"
     offset="0.3296" /><stop
     id="stop6-2"
     style="stop-color:#FF9702"
     offset="0.676" /></linearGradient>
		
		
		
		
		
		
		
	</defs><sodipodi:namedview
   pagecolor="#ffffff"
   bordercolor="#666666"
   borderopacity="1"
   objecttolerance="10"
   gridtolerance="10"
   guidetolerance="10"
   inkscape:pageopacity="0"
   inkscape:pageshadow="2"
   inkscape:window-width="1366"
   inkscape:window-height="705"
   id="namedview38"
   showgrid="false"
   inkscape:zoom="0.70710678"
   inkscape:cx="553.24466"
   inkscape:cy="274.55569"
   inkscape:window-x="-8"
   inkscape:window-y="-8"
   inkscape:window-maximized="1"
   inkscape:current-layer="Camada_1" />
<style
   type="text/css"
   id="style2">
	.st0{fill:url(#SVGID_1_);}
	.st1{fill:#241C32;}
</style>

<g
   id="g135"><path
     class="st1"
     d="m 849.29588,102.92708 h 39.15063 c 23.5936,0 38.70825,12.23918 38.70825,33.54715 0,23.15122 -15.11465,38.26587 -38.70825,38.26587 h -39.15063 z m 67.53668,118.48411 c 40.62523,-5.1611 74.09865,-40.10912 74.09865,-84.49458 0,-57.583129 -39.15063,-89.213299 -102.41097,-89.213299 H 786.55165 V 337.60967 h 62.81796 V 221.41119 l 77.93261,116.12475 H 1000 Z"
     id="path11"
     style="stroke-width:0.7373" /><polygon
     class="st1"
     points="385.8,457.8 472.3,457.8 472.3,142.1 558.7,142.1 558.7,64.7 299.4,64.7 299.4,142.1 385.8,142.1 "
     id="polygon13"
     transform="matrix(0.73730001,0,0,0.73730001,-2.65428,0)" /><path
     class="st1"
     d="m 100.05161,154.39062 c -18.874879,-8.47895 -25.952959,-17.91639 -25.952959,-30.2293 0,-14.15616 11.7968,-25.952959 30.671679,-25.510579 16.51552,0.44238 29.27081,9.437439 38.26587,30.671679 l 54.26528,-24.10971 C 182.18683,66.504461 151.51515,43.869351 101.96859,43.869351 c -52.422029,0 -91.13028,34.50564 -91.13028,80.734349 0,31.63017 15.55703,56.62464 52.422031,75.05714 l 40.625229,20.27575 c 22.63511,11.35442 33.54715,19.83337 33.54715,36.34889 0,17.91639 -14.59854,30.67168 -33.54715,30.67168 -20.275749,0 -38.708249,-11.35442 -47.187199,-36.79127 L 3.6e-8,266.75514 C 13.19767,314.45845 52.422031,342.32839 103.36946,342.32839 c 55.22377,0 97.69225,-35.3904 97.69225,-86.41156 0,-39.15063 -21.23424,-65.17732 -61.85947,-83.53609 z"
     id="path15"
     style="stroke-width:0.7373" /><path
     class="st1"
     d="m 162.72211,488.82991 c -5.08737,-6.04586 -12.46037,-9.51117 -21.97154,-9.51117 -19.31726,0 -33.54715,15.70449 -33.54715,37.30738 0,21.60289 14.22989,37.30738 32.73612,37.30738 10.3222,0 18.65369,-4.57126 23.88852,-12.46037 l 21.30797,15.85195 c -9.65863,13.78751 -26.02669,20.12829 -41.87864,20.12829 -36.20143,0 -62.523039,-23.74106 -62.523039,-60.90098 0,-37.15992 26.321609,-60.90098 62.523039,-60.90098 12.90275,0 29.27081,4.4238 39.15063,17.03163 z"
     id="path19"
     style="stroke-width:0.7373" /><path
     class="st1"
     d="m 208.95082,458.67434 h 25.51058 v 43.20578 h 49.62029 v -43.20578 h 25.51058 V 574.5779 H 284.08169 V 524.51523 H 234.4614 v 50.06267 h -25.51058 z"
     id="path21"
     style="stroke-width:0.7373" /><path
     class="st1"
     d="m 381.18411,458.67434 h 21.08678 l 50.43132,115.90356 h -28.82843 l -9.95355,-24.55209 H 368.8712 l -9.65864,24.55209 H 331.0477 Z m 9.80609,33.76834 -14.08243,36.05397 h 28.31232 z"
     id="path23"
     style="stroke-width:0.7373" /><path
     class="st1"
     d="m 474.15764,458.67434 h 34.72683 l 49.25164,80.51316 h 0.29492 v -80.51316 h 25.51058 V 574.5779 h -33.39969 l -50.57878,-82.50387 h -0.29492 v 82.50387 h -25.51058 z"
     id="path25"
     style="stroke-width:0.7373" /><path
     class="st1"
     d="m 617.41503,458.67434 h 34.6531 l 49.25164,80.51316 h 0.29492 v -80.51316 h 25.65804 V 574.5779 h -33.39969 l -50.65251,-82.50387 h -0.29492 v 82.50387 h -25.51058 z"
     id="path27"
     style="stroke-width:0.7373" /><path
     class="st1"
     d="m 761.63091,458.67434 h 78.74364 v 23.5936 h -53.23306 v 21.60289 h 50.28386 v 23.5936 h -50.28386 v 23.5936 h 56.18226 v 23.5936 h -81.69284 z"
     id="path29"
     style="stroke-width:0.7373" /><path
     class="st1"
     d="m 874.58527,458.67434 h 25.51058 v 92.30996 h 47.33466 v 23.5936 h -72.84524 z"
     id="path31"
     style="stroke-width:0.7373" /><path
     d="M 769.51938,139.74894 H 622.44288 L 576.89418,-0.08385 531.35648,139.74894 H 384.28034 l 118.04814,86.63824 c 0,0 57.6807,-37.99533 127.5593,-52.31356 -103.0719,76.05045 -159.1105,151.56801 -159.1105,151.56801 v -0.005 0.005 l -12.9265,40.64901 119.0434,-86.35547 119.0433,86.35547 -45.3582,-139.90346 z"
     style="display:inline;fill:url(#linearGradient879);fill-opacity:1;fill-rule:nonzero;stroke:none;stroke-width:5.43803"
     id="path3144"
     inkscape:connector-curvature="0" /></g></svg>
