<?xml version="1.0" encoding="UTF-8" standalone="no"?>
<svg
   xmlns:dc="http://purl.org/dc/elements/1.1/"
   xmlns:cc="http://creativecommons.org/ns#"
   xmlns:rdf="http://www.w3.org/1999/02/22-rdf-syntax-ns#"
   xmlns:svg="http://www.w3.org/2000/svg"
   xmlns="http://www.w3.org/2000/svg"
   viewBox="0 0 449.21539 562.60577"
   id="svg4"
   height="562.60577"
   width="449.21539"
   version="1.1">
  <metadata
     id="metadata10">
    <rdf:RDF>
      <cc:Work
         rdf:about="">
        <dc:format>image/svg+xml</dc:format>
        <dc:type
           rdf:resource="http://purl.org/dc/dcmitype/StillImage" />
      </cc:Work>
    </rdf:RDF>
  </metadata>
  <defs
     id="defs8" />
  <path
     id="path2"
     style="fill:#ff4b57;fill-rule:evenodd"
     d="m 0,218.574 c 0,23.1891 0.8384,37.326 6.4649,59.9954 1.8013,7.2572 4.0642,14.0932 6.3705,20.9954 2.9014,8.6828 10.3819,25.2895 14.9008,33.0783 l 5.1099,8.751 c 5.4538,8.8655 10.7341,15.9971 17.1106,24.1157 6.9561,8.8567 20.8971,23.3141 28.8881,29.7525 l 5.6566,4.6499 c 9.0176,7.3779 18.7045,13.5472 28.7133,19.6207 5.883,3.5699 12.1433,6.4257 18.275,9.4459 4.2816,2.109 15.4251,6.5112 19.5041,7.8615 26.781,8.8652 46.0969,12.3914 76.8125,12.3914 27.8472,0 55.0859,-6.1045 80.2177,-16.0941 19.9132,-7.9152 39.6066,-19.6049 56.2993,-32.9051 l 18.345,-16.4842 c 6.3757,-6.3761 13.8484,-14.3808 19.4357,-21.7905 2.0794,-2.7578 3.9563,-5.2329 5.8885,-7.9721 7.6532,-10.8501 14.8645,-22.6986 20.2593,-34.8276 0.6834,-1.5362 1.4121,-2.9572 2.1377,-4.615 0.6819,-1.5578 1.3432,-3.0233 2.0217,-4.7309 4.2529,-10.7037 7.513,-19.7448 10.3404,-31.2416 3.626,-14.7427 5.9059,-31.091 6.4638,-47.3786 v -15.3994 c -0.2262,-6.3766 -0.7421,-12.6607 -1.5715,-18.7484 -0.2855,-2.0954 -0.876,-5.0988 -0.9162,-6.9027 H 397.6835 V 322.7076 H 351.1272 V 190.1415 h -49.7549 v 132.5661 h -38.0269 c -5.5165,0 -9.4322,-6.2657 -11.742,-10.2927 -1.2318,-2.1475 -2.9194,-4.4135 -4.3932,-6.6243 -11.4625,-17.1941 -25.1771,-37.41 -36.1267,-54.5002 L 194.4702,226.322 c -0.9328,-1.3993 -3.7143,-5.9662 -4.6909,-6.6819 v 102.712 H 146.7768 V 190.1415 H 96.6666 V 322.3521 H 50.1103 V 190.1415 H 2.4876 L 0.8079,203.744 c -0.3159,2.4766 -0.3819,4.8625 -0.4433,7.3757 z m 10.3064,-61.4851 c 55.3226,0 110.6453,0 165.968,0 6.4885,0 19.2793,-1.0299 24.381,1.2073 3.2417,1.4215 6.3105,4.8402 8.3141,7.6788 2.8324,4.0127 5.4324,8.3354 8.1751,12.4381 1.3886,2.0772 2.5992,4.0766 4.0516,6.2548 l 32.7665,50.3972 c 0.8043,1.2063 1.3322,1.9941 2.1347,3.1963 0.7868,1.1784 1.1837,2.3294 2.2725,3.0584 V 157.0889 H 438.909 c -0.6997,-3.0033 -4.648,-13.2236 -5.9396,-16.4507 -3.8405,-9.5963 -9.8406,-21.6908 -15.0955,-30.3957 -6.2379,-10.333 -10.9394,-17.2352 -18.5251,-26.6108 -0.917,-1.1333 -1.6909,-1.9747 -2.5801,-3.1061 l -9.3054,-10.597 C 382.87,64.7122 370.1928,53.5277 365.2312,49.5129 354.597,40.9082 333.2469,26.6405 320.0026,21.1743 l -11.8679,-5.191 C 288.6844,7.323 254.2828,0 233.137,0 h -3.3225 c -21.8584,0.005 -30.7256,0.1686 -53.8096,5.0615 -5.8375,1.2375 -12.419,3.1025 -17.8976,4.8478 -3.0884,0.9838 -5.7463,1.7905 -8.5386,2.8338 -21.619,8.0779 -32.4021,13.6895 -52.3315,26.9221 -8.0889,5.3708 -18.024,13.4264 -24.9967,20.1387 -3.5731,3.4398 -8.072,7.1384 -11.4156,11.33 l -10.633,12.1125 c -15.807,19.3709 -28.5117,41.7497 -36.9976,65.3576 -0.9568,2.6624 -2.2337,5.6765 -2.8879,8.4849 z m 170.9435,404.0954 h 17.7695 v -34.4744 c 8.7697,0 16.7689,-0.8243 16.7118,12.7863 -0.0319,7.5945 -0.7089,16.5245 1.7687,21.6881 h 17.4141 c -2.7415,-5.7138 -0.7861,-25.8438 -3.2392,-32.3012 -1.9811,-5.2153 -7.3873,-8.5705 -13.1088,-8.5705 v -0.7107 c 8.0269,-0.1789 14.571,-8.9398 14.571,-17.4149 0,-7.0061 0.0444,-13.9251 -5.4093,-19.4687 -3.0812,-3.1321 -7.7227,-5.4096 -13.7818,-5.4096 h -32.696 z M 57.9288,499.6992 c 0,26.6218 41.2841,25.8581 34.7166,45.0246 -1.7636,5.1466 -5.8066,5.0875 -9.4837,5.0875 -7.6413,0 -8.5294,-6.9135 -8.5294,-14.5716 H 56.8627 c 0,8.2572 0.2834,15.9927 5.9403,21.4255 3.6048,3.4622 9.7899,5.3936 16.4135,5.9406 h 8.0265 c 6.6,-0.536 12.7872,-2.3865 16.4515,-5.4111 2.5785,-2.1281 3.7881,-3.5385 5.2975,-6.7859 2.0276,-4.3627 2.2456,-8.1455 2.2456,-13.0367 0,-24.2235 -35.1838,-25.1157 -35.1838,-39.0946 0,-6.7348 2.5016,-9.5958 9.5956,-9.5958 6.5747,0 7.3559,7.9768 7.4633,12.7945 h 17.0588 c 0,-8.2456 0.2366,-14.8498 -6.8513,-20.8701 -7.8259,-6.6469 -28.9073,-6.2095 -37.7842,0.756 -5.4188,4.2521 -7.6072,11.0853 -7.6072,18.3371 z m 277.2058,-2.1324 c 0,7.4373 0.5168,10.8735 5.2747,16.7601 6.358,7.8657 23.0466,14.38 27.1275,19.4296 6.068,7.5088 1.2893,16.0548 -4.6817,16.0548 -3.0546,0 -6.9259,0.2289 -9.1006,-2.9829 -2.2026,-3.253 -1.9165,-7.6563 -1.9165,-11.5887 h -17.7697 c 0,6.3102 -0.473,9.6037 1.8726,15.5423 3.0801,7.7985 11.6225,11.8238 20.8726,11.8238 15.1212,0 30.208,-2.1188 31.285,-21.3139 0.17,-3.0301 0.3293,-3.6645 -0.1026,-7.0262 -1.3053,-10.1579 -10.2315,-16.6623 -18.7457,-21.0592 l -5.0424,-2.7762 c -4.529,-2.7431 -11.3037,-6.1375 -11.3037,-12.8635 0,-6.3233 3.7413,-8.8851 9.5956,-8.8851 6.3901,0 7.4633,6.8448 7.4633,12.7945 h 17.0588 c 0.9487,-4.0725 -0.0305,-9.3822 -1.1029,-12.7579 -0.8036,-2.5293 -2.6444,-5.6901 -4.6833,-7.4001 -10.752,-9.0179 -46.101,-9.1834 -46.101,16.2486 z m -211.4583,63.6175 h 46.5563 V 548.0342 H 141.446 v -24.1675 h 25.9436 v -12.0838 c 0,-0.8188 -0.2474,-1.0661 -1.0662,-1.0661 H 141.446 v -20.2582 h 27.0097 c 0.8189,0 1.0662,-0.2473 1.0662,-1.0661 V 478.375 c 0,-0.819 -0.2473,-1.0663 -1.0662,-1.0663 h -44.7794 z m 154.5955,0 h 46.5564 v -13.1501 h -28.7868 v -24.1675 h 25.9437 v -12.0838 c 0,-0.8188 -0.2473,-1.0661 -1.0663,-1.0661 h -24.8774 v -20.2582 h 27.0098 c 0.819,0 1.0661,-0.2473 1.0661,-1.0661 V 478.375 c 0,-0.819 -0.2471,-1.0663 -1.0661,-1.0663 h -44.7794 z m -32.3406,0 h 17.7696 v -83.8756 h -17.7696 z m -47.1864,-47.6575 7.0327,0.098 c 7.8625,0 10.4332,-6.9124 9.5397,-14.96 -0.4004,-3.6073 -1.7685,-6.4873 -4.7434,-7.6736 -2.2467,-0.8959 -9.1849,-0.9363 -11.8299,-0.5824 z m 203.5588,-34.0857 v 9.2406 h 1.777 v -7.1082 c 0.8527,1.2272 2.3886,5.916 2.4878,7.1082 h 1.7769 l 2.3278,-7.1615 0.1599,7.1615 h 1.777 V 478.375 c -2.9935,0 -2.3506,0.2775 -4.2077,6.0988 -0.4234,1.3269 -0.2002,1.3992 -1.1232,2.0755 -0.1898,-2.2815 -1.9229,-5.7498 -2.4877,-8.1743 -1.3106,0 -2.4878,-0.3144 -2.4878,1.0661 z m -9.2401,0.3554 h 3.1985 v 8.8852 h 1.7769 v -8.8852 h 3.1986 v -1.4215 h -8.174 z" />
</svg>
