<?xml version="1.0" encoding="utf-8"?>
<!-- Generator: Adobe Illustrator 26.0.0, SVG Export Plug-In . SVG Version: 6.00 Build 0)  -->
<svg version="1.1" xmlns="http://www.w3.org/2000/svg" xmlns:xlink="http://www.w3.org/1999/xlink" x="0px" y="0px"
	 viewBox="0 0 542 684" style="enable-background:new 0 0 542 684;" xml:space="preserve">
<style type="text/css">
	.st0{fill:#E92726;}
	.st1{fill:#EA2C2B;}
</style>
<g id="Capa_1">
	<g id="Capa_2_00000113317711321663250920000001464552798759581589_">
		<g>
			<path class="st0" d="M175.6,189.7h53.1c13.4,0,20.1,3.7,26.7,14.8l54.9,85.3h1.9V189.7h217.6C495.3,79.7,392.5,0,271,0
				S46.7,79.7,12.3,189.7H175.6z"/>
			<path class="st0" d="M538.8,229L538.8,229h-59.5v159.8h-54V229h-61.7v159.8h-36c-13.4,0-19.8-3.8-26.7-14.8l-69.8-104.4H230
				v119.1h-52.5V229H116v159.8H61V229H3.2l0,0C1.1,242.5,0,256.4,0,270.5C0,419.9,121.4,541,271,541s271-121.1,271-270.5
				C542,256.4,540.9,242.5,538.8,229z"/>
		</g>
	</g>
</g>
<g id="Capa_2">
	<g>
		<path class="st1" d="M8.1,682.3V578.1h29.6l27.8,72.1h0.3v-72.1h20.4v104.2H57.4l-28.5-76.2h-0.3v76.2H8.1z"/>
		<path class="st1" d="M98.8,629.5c0-27.9,0-54.5,36.9-54.5s36.9,26.6,36.9,54.5c0,27.6,0,54.5-36.9,54.5S98.8,657.1,98.8,629.5z
			 M149.9,629.5c0-27-1.6-38.7-14.2-38.7c-12.6,0-14.2,11.7-14.2,38.7c0,27,1.6,38.7,14.2,38.7C148.3,668.2,149.9,656.5,149.9,629.5
			z"/>
		<path class="st1" d="M177.4,578.1h22.7l16.2,75.8h0.3l18.3-75.8h21.6l-27.7,104.2h-25.6L177.4,578.1z"/>
		<path class="st1" d="M264.8,682.3V577.8h55.7v16.1h-34.4v25.8h31.7v16.1h-31.7v30.5h35.5v16.1H264.8z"/>
		<path class="st1" d="M332.5,682.3V577.9h21V665h37.4v17.4H332.5z"/>
		<path class="st1" d="M382.4,682.3l29.5-104.5h29.4l28.9,104.5h-23.5l-5.9-23.2h-30.4l-6,23.2H382.4z M425.3,597.9H425l-10.2,45.2
			h21.2L425.3,597.9z"/>
		<path class="st1" d="M502.2,684c-26.1,0-30.9-15.9-29.8-33.9h21c0,10,0.4,18.3,12,18.3c7.1,0,10.6-4.8,10.6-11.8
			c0-18.8-42.4-19.9-42.4-51c0-16.3,7.5-29.3,33.2-29.3c20.5,0,30.7,9.5,29.3,31.3h-20.5c0-7.8-1.3-15.7-9.8-15.7
			c-6.8,0-10.9,3.9-10.9,11.1c0,19.8,42.4,18.1,42.4,50.8C537.3,680.8,518.2,684,502.2,684z"/>
	</g>
</g>
</svg>
